<svg width="1756" height="650" viewBox="0 0 1756 650" fill="none" xmlns="http://www.w3.org/2000/svg">
<path d="M100 350H400L500 650H0L100 350Z" fill="#141414"/>
<path d="M100 350H400L500 650H0L100 350Z" fill="#141414"/>
<path d="M175 200L400 250L500 550L75 500L175 200Z" fill="#99BBFF"/>
<path d="M287.5 0L400 150L500 450L187.5 300L287.5 0Z" fill="#C2D6FF"/>
<path d="M1509.47 537.05C1498.24 537.05 1491.65 529.688 1491.65 516.9V359.963C1491.65 347.175 1498.24 339.812 1509.47 339.812C1520.71 339.812 1527.3 347.175 1527.3 359.963V374.688C1537.76 349.5 1556.36 335.938 1581.94 335.938C1607.9 335.938 1627.66 350.663 1636.57 375.075C1645.1 351.05 1665.25 335.938 1692.76 335.938C1732.29 335.938 1755.54 363.838 1755.54 408.788V516.9C1755.54 529.688 1748.95 537.05 1737.71 537.05C1726.09 537.05 1719.89 529.688 1719.89 516.9V413.825C1719.89 382.438 1707.1 367.325 1683.07 367.325C1659.05 367.325 1641.61 385.15 1641.22 410.338V516.9C1641.22 529.688 1635.02 537.05 1623.79 537.05C1612.55 537.05 1605.96 529.688 1605.96 516.9V410.338C1605.96 382.438 1592.01 367.325 1568.37 367.325C1545.12 367.325 1527.69 388.25 1527.3 417.312V516.9C1527.3 529.688 1521.1 537.05 1509.47 537.05Z" fill="black"/>
<path d="M1361.75 541.312C1304.01 541.312 1267.59 496.75 1267.59 438.625C1267.59 380.5 1304.01 335.938 1361.75 335.938C1420.26 335.938 1456.69 380.5 1456.69 438.625C1456.69 496.75 1420.26 541.312 1361.75 541.312ZM1361.75 508.763C1398.56 508.763 1420.26 479.7 1420.26 438.625C1420.26 397.55 1398.56 368.487 1361.75 368.487C1325.33 368.487 1304.01 397.55 1304.01 438.625C1304.01 479.7 1325.33 508.763 1361.75 508.763Z" fill="black"/>
<path d="M1213.74 537.05C1202.51 537.05 1195.92 529.687 1195.92 516.9V360.35C1195.92 347.562 1202.51 340.2 1213.74 340.2C1225.37 340.2 1231.57 347.562 1231.57 360.35V516.9C1231.57 529.687 1225.37 537.05 1213.74 537.05ZM1213.74 311.912C1200.57 311.912 1190.11 301.45 1190.11 288.662C1190.11 275.875 1200.57 266.187 1213.74 266.187C1226.92 266.187 1236.99 275.875 1236.99 288.662C1236.99 301.45 1226.92 311.912 1213.74 311.912Z" fill="black"/>
<path d="M1007.96 537.438C999.825 537.438 992.463 530.85 992.463 522.325C992.463 516.9 994.4 510.7 1000.6 502.95L1052.91 436.3L1004.86 375.462C998.275 367.325 996.725 361.9 996.725 356.862C996.725 347.95 1003.7 340.2 1013 340.2C1020.75 340.2 1026.95 344.462 1034.31 354.538L1076.55 412.275L1119.95 354.15C1127.31 344.075 1133.9 339.812 1141.26 339.812C1149.4 339.812 1156.76 346.013 1156.76 355.312C1156.76 360.35 1154.83 366.162 1147.46 375.462L1099.8 436.3L1151.73 502.562C1157.93 510.312 1159.86 515.35 1159.86 520.388C1159.86 530.075 1152.89 537.438 1143.59 537.438C1135.84 537.438 1129.25 533.563 1119.95 520.775L1076.16 460.712L1031.21 520.775C1021.14 533.95 1014.94 537.438 1007.96 537.438Z" fill="black"/>
<path d="M757.55 537.05C746.7 537.05 740.5 530.463 740.5 520.775C740.5 517.288 740.5 513.8 744.375 502.95L817.612 292.537C825.75 269.287 833.113 262.7 851.325 262.7H853.263C871.475 262.7 878.837 269.287 886.975 292.537L960.6 502.562C964.475 513.412 964.475 516.9 964.475 520C964.475 530.075 958.275 537.05 946.65 537.05C938.125 537.05 930.762 532.788 925.725 518.45L907.125 463.425H796.3L778.088 518.45C773.05 533.175 765.687 537.05 757.55 537.05ZM806.763 432.425H896.662L851.325 297.575L806.763 432.425Z" fill="black"/>
</svg>
